<svg width="1600" height="920" viewBox="0 0 1600 920" fill="none" xmlns="http://www.w3.org/2000/svg">
  <rect width="1600" height="920" rx="28" fill="#F7F8FA"/>
  <text x="80" y="86" font-family="Segoe UI, Arial, sans-serif" font-size="34" font-weight="700" fill="#1F2937">Docker Advanced WebRTC Vue on AWS</text>
  <text x="80" y="122" font-family="Segoe UI, Arial, sans-serif" font-size="18" fill="#6B7280">GitHub Actions, Docker Hub, EKS, LoadBalancer Services, CloudWatch Logs, and Vue/WebRTC runtime flow</text>

  <rect x="70" y="170" width="1460" height="670" rx="26" fill="#FFFFFF" stroke="#D9DEE8" stroke-width="2"/>

  <rect x="110" y="230" width="220" height="150" rx="24" fill="#E8F1FB"/>
  <rect x="136" y="256" width="72" height="72" rx="18" fill="#0058A3"/>
  <path d="M160 292H184M172 280V304" stroke="#FFDA1A" stroke-width="8" stroke-linecap="round"/>
  <text x="228" y="286" font-family="Segoe UI, Arial, sans-serif" font-size="18" font-weight="700" fill="#111827">Developer</text>
  <text x="228" y="316" font-family="Segoe UI, Arial, sans-serif" font-size="15" fill="#4B5563">Local source edits</text>
  <text x="228" y="338" font-family="Segoe UI, Arial, sans-serif" font-size="15" fill="#4B5563">README / FE / signaling</text>

  <rect x="390" y="210" width="260" height="180" rx="24" fill="#FFF7E0"/>
  <rect x="420" y="242" width="78" height="78" rx="18" fill="#24292F"/>
  <circle cx="446" cy="268" r="9" fill="#FFFFFF"/>
  <circle cx="472" cy="268" r="9" fill="#FFFFFF"/>
  <path d="M436 294C444 304 474 304 482 294" stroke="#FFFFFF" stroke-width="7" stroke-linecap="round"/>
  <text x="520" y="270" font-family="Segoe UI, Arial, sans-serif" font-size="19" font-weight="700" fill="#111827">GitHub</text>
  <text x="520" y="298" font-family="Segoe UI, Arial, sans-serif" font-size="15" fill="#4B5563">Source repository</text>
  <text x="520" y="320" font-family="Segoe UI, Arial, sans-serif" font-size="15" fill="#4B5563">README + workflows</text>
  <text x="520" y="342" font-family="Segoe UI, Arial, sans-serif" font-size="15" fill="#4B5563">main branch trigger</text>

  <rect x="720" y="210" width="280" height="180" rx="24" fill="#E9F7EF"/>
  <rect x="752" y="242" width="84" height="84" rx="20" fill="#208A43"/>
  <path d="M776 286H812M794 268V304" stroke="#FFFFFF" stroke-width="8" stroke-linecap="round"/>
  <text x="866" y="270" font-family="Segoe UI, Arial, sans-serif" font-size="19" font-weight="700" fill="#111827">GitHub Actions</text>
  <text x="866" y="298" font-family="Segoe UI, Arial, sans-serif" font-size="15" fill="#4B5563">Build / push latest images</text>
  <text x="866" y="320" font-family="Segoe UI, Arial, sans-serif" font-size="15" fill="#4B5563">kubectl apply + rollout</text>
  <text x="866" y="342" font-family="Segoe UI, Arial, sans-serif" font-size="15" fill="#4B5563">Frontend env injection</text>

  <rect x="1070" y="210" width="240" height="180" rx="24" fill="#EAF2FF"/>
  <rect x="1102" y="242" width="84" height="84" rx="20" fill="#2496ED"/>
  <path d="M1128 284C1140 268 1158 268 1170 284C1158 296 1140 296 1128 284Z" fill="#FFFFFF"/>
  <rect x="1144" y="286" width="18" height="18" rx="4" fill="#2496ED"/>
  <text x="1210" y="270" font-family="Segoe UI, Arial, sans-serif" font-size="19" font-weight="700" fill="#111827">Docker Hub</text>
  <text x="1210" y="298" font-family="Segoe UI, Arial, sans-serif" font-size="15" fill="#4B5563">edumgt/webrtc-frontend</text>
  <text x="1210" y="320" font-family="Segoe UI, Arial, sans-serif" font-size="15" fill="#4B5563">edumgt/webrtc-signaling</text>

  <rect x="210" y="470" width="1180" height="300" rx="28" fill="#F8FAFC" stroke="#D9DEE8" stroke-width="2"/>
  <text x="240" y="520" font-family="Segoe UI, Arial, sans-serif" font-size="26" font-weight="700" fill="#1F2937">Amazon EKS Cluster</text>
  <text x="240" y="552" font-family="Segoe UI, Arial, sans-serif" font-size="16" fill="#6B7280">Namespace: webrtc</text>

  <rect x="250" y="590" width="250" height="135" rx="22" fill="#FFF3D6"/>
  <rect x="278" y="618" width="64" height="64" rx="16" fill="#FF9900"/>
  <path d="M296 650H324M310 636V664" stroke="#FFFFFF" stroke-width="7" stroke-linecap="round"/>
  <text x="362" y="638" font-family="Segoe UI, Arial, sans-serif" font-size="18" font-weight="700" fill="#111827">Frontend Service</text>
  <text x="362" y="664" font-family="Segoe UI, Arial, sans-serif" font-size="15" fill="#4B5563">LoadBalancer :80</text>
  <text x="362" y="686" font-family="Segoe UI, Arial, sans-serif" font-size="15" fill="#4B5563">Public ELB DNS</text>

  <rect x="540" y="590" width="250" height="135" rx="22" fill="#FFF3D6"/>
  <rect x="568" y="618" width="64" height="64" rx="16" fill="#FF9900"/>
  <path d="M586 650H614M600 636V664" stroke="#FFFFFF" stroke-width="7" stroke-linecap="round"/>
  <text x="652" y="638" font-family="Segoe UI, Arial, sans-serif" font-size="18" font-weight="700" fill="#111827">Signaling Service</text>
  <text x="652" y="664" font-family="Segoe UI, Arial, sans-serif" font-size="15" fill="#4B5563">LoadBalancer :3001</text>
  <text x="652" y="686" font-family="Segoe UI, Arial, sans-serif" font-size="15" fill="#4B5563">WebSocket endpoint</text>

  <rect x="860" y="570" width="230" height="160" rx="22" fill="#E8F1FB"/>
  <rect x="890" y="600" width="70" height="70" rx="18" fill="#0058A3"/>
  <rect x="907" y="618" width="36" height="36" rx="8" fill="#FFDA1A"/>
  <text x="980" y="626" font-family="Segoe UI, Arial, sans-serif" font-size="18" font-weight="700" fill="#111827">Frontend Pod</text>
  <text x="980" y="652" font-family="Segoe UI, Arial, sans-serif" font-size="15" fill="#4B5563">Node static server</text>
  <text x="980" y="674" font-family="Segoe UI, Arial, sans-serif" font-size="15" fill="#4B5563">Runtime env-config.js</text>
  <text x="980" y="696" font-family="Segoe UI, Arial, sans-serif" font-size="15" fill="#4B5563">Vue + ApexCharts UI</text>

  <rect x="1130" y="570" width="230" height="160" rx="22" fill="#E8F1FB"/>
  <rect x="1160" y="600" width="70" height="70" rx="18" fill="#0058A3"/>
  <rect x="1177" y="618" width="36" height="36" rx="18" fill="#FFDA1A"/>
  <text x="1250" y="626" font-family="Segoe UI, Arial, sans-serif" font-size="18" font-weight="700" fill="#111827">Signaling Pod</text>
  <text x="1250" y="652" font-family="Segoe UI, Arial, sans-serif" font-size="15" fill="#4B5563">Node HTTP + ws</text>
  <text x="1250" y="674" font-family="Segoe UI, Arial, sans-serif" font-size="15" fill="#4B5563">room / SDP / ICE relay</text>
  <text x="1250" y="696" font-family="Segoe UI, Arial, sans-serif" font-size="15" fill="#4B5563">health probe / logs</text>

  <rect x="1330" y="210" width="150" height="180" rx="24" fill="#F4ECFF"/>
  <rect x="1365" y="244" width="78" height="78" rx="18" fill="#7C3AED"/>
  <path d="M1384 292H1424" stroke="#FFFFFF" stroke-width="8" stroke-linecap="round"/>
  <path d="M1404 272V312" stroke="#FFFFFF" stroke-width="8" stroke-linecap="round"/>
  <text x="1356" y="354" font-family="Segoe UI, Arial, sans-serif" font-size="18" font-weight="700" fill="#111827">CloudWatch</text>
  <text x="1362" y="378" font-family="Segoe UI, Arial, sans-serif" font-size="15" fill="#4B5563">Logs / Insights</text>

  <path d="M330 300H390" stroke="#6B7280" stroke-width="4" stroke-linecap="round"/>
  <path d="M650 300H720" stroke="#6B7280" stroke-width="4" stroke-linecap="round"/>
  <path d="M1000 300H1070" stroke="#6B7280" stroke-width="4" stroke-linecap="round"/>
  <path d="M1190 390V470" stroke="#6B7280" stroke-width="4" stroke-linecap="round"/>
  <path d="M375 590V480H975" stroke="#9CA3AF" stroke-width="4" stroke-linecap="round"/>
  <path d="M665 590V510H1245" stroke="#9CA3AF" stroke-width="4" stroke-linecap="round"/>
  <path d="M500 656H860" stroke="#9CA3AF" stroke-width="4" stroke-linecap="round"/>
  <path d="M790 656H1130" stroke="#9CA3AF" stroke-width="4" stroke-linecap="round"/>
  <path d="M1245 570V390H1405" stroke="#9CA3AF" stroke-width="4" stroke-linecap="round" stroke-dasharray="10 10"/>

  <text x="350" y="286" font-family="Segoe UI, Arial, sans-serif" font-size="14" fill="#6B7280">git push</text>
  <text x="676" y="286" font-family="Segoe UI, Arial, sans-serif" font-size="14" fill="#6B7280">CI/CD</text>
  <text x="1018" y="286" font-family="Segoe UI, Arial, sans-serif" font-size="14" fill="#6B7280">push latest</text>
  <text x="1212" y="435" font-family="Segoe UI, Arial, sans-serif" font-size="14" fill="#6B7280">kubectl apply / rollout</text>
  <text x="1260" y="544" font-family="Segoe UI, Arial, sans-serif" font-size="14" fill="#6B7280">stdout / stderr logs</text>
</svg>
